Coordinates
version=1
nRows=23
nColumns=23
inDegrees=yes

Units are S.I. units (second, meters, Newtons, ...)
Angles are in degrees.

endheader
time	pelvis_tilt	pelvis_list	pelvis_rotation	pelvis_tx	pelvis_ty	pelvis_tz	hip_flexion_r	hip_adduction_r	hip_rotation_r	knee_angle_r	knee_angle_r_beta	ankle_angle_r	subtalar_angle_r	mtp_angle_r	hip_flexion_l	hip_adduction_l	hip_rotation_l	knee_angle_l	knee_angle_l_beta	ankle_angle_l	subtalar_angle_l	mtp_angle_l
    123.00444400	    -17.74124631	      6.59525864	      1.99493587	      0.00881965	      1.37080789	      0.24187659	     48.70773435	    -11.74840321	     -3.57507040	     32.95871801	      0.57523815	     -4.49622305	      0.00000000	      0.00000000	     75.98348395	     -0.03076716	     -0.42603319	    104.93839245	      1.83152046	     -1.59897258	      0.00000000	      0.00000000
    123.01333300	    -17.83831377	      6.75596156	      2.24887901	      0.00937655	      1.37079683	      0.24246175	     47.49060896	    -12.12189304	     -4.53899943	     31.45015298	      0.54890872	     -5.94426529	      0.00000000	      0.00000000	     77.40783767	     -0.02137243	     -0.55126461	    105.78889008	      1.84636444	     -1.78671203	      0.00000000	      0.00000000
    123.02222200	    -17.95192523	      7.17951296	      2.46790327	      0.00982756	      1.37081452	      0.24327253	     46.47168309	    -12.62172390	     -5.01342903	     30.35495065	      0.52979383	     -6.52330307	      0.00000000	      0.00000000	     78.73643098	      0.02840122	     -0.99139409	    106.40583590	      1.85713218	     -1.87522480	      0.00000000	      0.00000000
    123.03111100	    -18.09509997	      7.28496554	      2.81219015	      0.01035885	      1.37092425	      0.24346532	     45.48940622	    -13.01590802	     -5.92041275	     29.36961157	      0.51259642	     -8.03347493	      0.00000000	      0.00000000	     80.09510763	      0.17151520	     -1.07734343	    106.91694893	      1.86605278	     -1.95538618	      0.00000000	      0.00000000
    123.04000000	    -18.09288168	      7.27290171	      3.02760738	      0.01062440	      1.37110068	      0.24382598	     44.49598001	    -13.19707695	     -6.66655980	     28.73061400	      0.50144381	     -9.06956993	      0.00000000	      0.00000000	     81.27732694	      0.16582372	     -1.07438578	    107.31438246	      1.87298931	     -2.01528380	      0.00000000	      0.00000000
    123.04888900	    -18.14298276	      7.47933573	      3.24797478	      0.01090485	      1.37140186	      0.24417121	     43.70987418	    -13.53677520	     -7.02632491	     28.45666671	      0.49666253	     -9.45613655	      0.00000000	      0.00000000	     82.35806601	      0.25510335	     -1.31235194	    107.48422370	      1.87595360	     -1.93624073	      0.00000000	      0.00000000
    123.05777800	    -18.18033695	      7.59557590	      3.47568462	      0.01105733	      1.37170953	      0.24435827	     43.03458771	    -13.82387519	     -7.39506813	     28.48555284	      0.49716669	     -9.81201264	      0.00000000	      0.00000000	     83.35927461	      0.35901573	     -1.47587495	    107.51276387	      1.87645172	     -1.78192009	      0.00000000	      0.00000000
    123.06666700	    -18.07305520	      7.66812986	      3.48838159	      0.01103000	      1.37232850	      0.24496802	     42.32450779	    -13.86386870	     -7.34180644	     28.67909890	      0.50054470	     -9.85431124	      0.00000000	      0.00000000	     84.10494313	      0.22903247	     -1.64376102	    107.37550505	      1.87405610	     -1.72390577	      0.00000000	      0.00000000
    123.07555600	    -18.06889983	      7.71374786	      3.74332000	      0.01092208	      1.37261209	      0.24464402	     41.91112551	    -14.15032397	     -7.56691392	     29.45114121	      0.51401938	     -9.84416015	      0.00000000	      0.00000000	     84.88337292	      0.45991917	     -1.71298212	    107.13024675	      1.86977553	     -1.35399128	      0.00000000	      0.00000000
    123.08444400	    -18.18381304	      7.83593156	      4.04452063	      0.01083487	      1.37294329	      0.24436572	     41.70354787	    -14.47920273	     -7.48439896	     30.44356720	      0.53134048	     -9.16615808	      0.00000000	      0.00000000	     85.60961669	      0.75404983	     -1.89913358	    106.64717333	      1.86134431	     -0.81078905	      0.00000000	      0.00000000
    123.09333300	    -18.22494707	      8.00938355	      4.13107088	      0.01053114	      1.37327016	      0.24438250	     41.66808672	    -14.70582783	     -7.11457754	     31.82944948	      0.55552869	     -8.21917245	      0.00000000	      0.00000000	     86.12155770	      0.84645967	     -2.17163844	    106.01478668	      1.85030708	     -0.32095404	      0.00000000	      0.00000000
    123.10222200	    -18.20197156	      8.08699425	      4.22964896	      0.01012320	      1.37361194	      0.24426552	     41.67259453	    -14.85734941	     -6.72261098	     33.44448346	      0.58371635	     -7.26850140	      0.00000000	      0.00000000	     86.45924820	      0.97577897	     -2.32734897	    105.24445153	      1.83686220	      0.24609606	      0.00000000	      0.00000000
    123.11111100	    -18.17139217	      8.15731270	      4.29581300	      0.00964305	      1.37390846	      0.24411460	     41.82497725	    -14.97458353	     -6.19909367	     35.36273353	      0.61719613	     -6.11027400	      0.00000000	      0.00000000	     86.64414889	      1.09295656	     -2.50218505	    104.31064834	      1.82056426	      0.87633703	      0.00000000	      0.00000000
    123.12000000	    -18.12176258	      8.20235743	      4.34403611	      0.00911801	      1.37413050	      0.24395036	     42.08287747	    -15.05009096	     -5.60758100	     37.52085184	      0.65486240	     -4.78726490	      0.00000000	      0.00000000	     86.67015875	      1.21082118	     -2.65116706	    103.22805683	      1.80166947	      1.59356729	      0.00000000	      0.00000000
    123.12888900	    -18.04104572	      8.19744777	      4.38725282	      0.00855361	      1.37422874	      0.24372650	     42.42402644	    -15.06728758	     -4.94326156	     39.90754954	      0.69651814	     -3.36835023	      0.00000000	      0.00000000	     86.54045935	      1.34022078	     -2.74756577	    102.02123845	      1.78060652	      2.38097838	      0.00000000	      0.00000000
    123.13777800	    -17.97561696	      8.22844560	      4.33869604	      0.00801714	      1.37430002	      0.24367373	     42.91517073	    -15.03945750	     -4.20490797	     42.46822417	      0.74121034	     -1.92647909	      0.00000000	      0.00000000	     86.25260391	      1.37499091	     -2.91999278	    100.61811463	      1.75611739	      3.12796722	      0.00000000	      0.00000000
    123.14666700	    -17.85623692	      8.15371815	      4.30069371	      0.00751245	      1.37426516	      0.24354661	     43.41215288	    -14.91736712	     -3.49616137	     45.17081450	      0.78837944	     -0.45063187	      0.00000000	      0.00000000	     85.79825392	      1.42531622	     -2.98396464	     99.11324902	      1.72985253	      3.96218095	      0.00000000	      0.00000000
    123.15555600	    -17.72924258	      8.10720962	      4.21821309	      0.00703370	      1.37415468	      0.24348668	     44.00119416	    -14.77280511	     -2.70953101	     48.00639211	      0.83786960	      1.03765630	      0.00000000	      0.00000000	     85.18680075	      1.44245186	     -3.08495427	     97.45136441	      1.70084717	      4.75647796	      0.00000000	      0.00000000
    123.16444400	    -17.58244269	      8.01445724	      4.11101752	      0.00663501	      1.37397603	      0.24344501	     44.62519073	    -14.55983826	     -1.94173210	     50.91650726	      0.88866070	      2.47285916	      0.00000000	      0.00000000	     84.42818995	      1.43207654	     -3.15282104	     95.65999910	      1.66958195	      5.54963492	      0.00000000	      0.00000000
    123.17333300	    -17.41963761	      7.89013102	      3.97637681	      0.00631935	      1.37374313	      0.24341270	     45.28535681	    -14.29369771	     -1.19984236	     53.88630841	      0.94049350	      3.85709237	      0.00000000	      0.00000000	     83.52386526	      1.39243252	     -3.20422751	     93.73515690	      1.63598711	      6.31467391	      0.00000000	      0.00000000
    123.18222200	    -17.22249653	      7.71817569	      3.80283664	      0.00607979	      1.37348086	      0.24341133	     45.95214773	    -13.95142611	     -0.49582174	     56.90402061	      0.99316252	      5.24103991	      0.00000000	      0.00000000	     82.46799316	      1.30883951	     -3.22273477	     91.68927987	      1.60027982	      7.06415165	      0.00000000	      0.00000000
    123.19111100	    -17.03997527	      7.51555446	      3.60322089	      0.00592861	      1.37319874	      0.24337106	     46.66910937	    -13.55848421	      0.19690475	     59.90135538	      1.04547588	      6.48666808	      0.00000000	      0.00000000	     81.30151934	      1.19527956	     -3.21460300	     89.51805588	      1.56238482	      7.73575168	      0.00000000	      0.00000000
    123.20000000	    -16.85445093	      7.32146758	      3.36879418	      0.00587420	      1.37291216	      0.24337453	     47.42842991	    -13.14151605	      0.87736680	     62.91249175	      1.09803012	      7.65154264	      0.00000000	      0.00000000	     80.00798723	      1.05139391	     -3.22832232	     87.21443550	      1.52217905	      8.35739853	      0.00000000	      0.00000000
